HIERARCHY
ROOT Hip
{
	OFFSET 0.000000 0.000000 0.000000 
	CHANNELS 6 Xposition Yposition Zposition Xrotation Yrotation Zrotation
	JOINT LowerSpine
	{
		OFFSET 0.000000 8.345300 -5.129200 
		CHANNELS 3 Xrotation Yrotation Zrotation
		JOINT MiddleSpine
		{
			OFFSET 10.856900 0.000000 0.000000 
			CHANNELS 3 Xrotation Yrotation Zrotation
			JOINT Chest
			{
				OFFSET 15.298400 0.000000 0.000000 
				CHANNELS 3 Xrotation Yrotation Zrotation
				JOINT Neck
				{
					OFFSET 25.661800 -0.598600 0.000000 
					CHANNELS 3 Xrotation Yrotation Zrotation
					JOINT Head
					{
						OFFSET 8.882900 0.000000 0.000000 
						CHANNELS 3 Xrotation Yrotation Zrotation
						End Site
						{
							OFFSET 19.739901 0.000000 0.000000 
						}
					}
				}
				JOINT RClavicle
				{
					OFFSET 23.687799 0.000000 3.158400 
					CHANNELS 3 Xrotation Yrotation Zrotation
					JOINT RShoulder
					{
						OFFSET -15.594500 -3.948000 0.987000 
						CHANNELS 3 Xrotation Yrotation Zrotation
						JOINT RForearm
						{
							OFFSET -31.337000 0.000000 0.197400 
							CHANNELS 3 Xrotation Yrotation Zrotation
							JOINT RHand
							{
								OFFSET -26.402100 0.000000 0.000000 
								CHANNELS 3 Xrotation Yrotation Zrotation
								End Site
								{
									OFFSET -15.791900 -0.987000 0.000000 
								}
							}
						}
					}
				}
				JOINT LClavicle
				{
					OFFSET 23.687799 0.000000 -3.158400 
					CHANNELS 3 Xrotation Yrotation Zrotation
					JOINT LShoulder
					{
						OFFSET -15.594500 -3.948000 -0.987000 
						CHANNELS 3 Xrotation Yrotation Zrotation
						JOINT LForearm
						{
							OFFSET -31.337000 0.000000 -0.197400 
							CHANNELS 3 Xrotation Yrotation Zrotation
							JOINT LHand
							{
								OFFSET -26.402100 0.000000 0.000000 
								CHANNELS 3 Xrotation Yrotation Zrotation
								End Site
								{
									OFFSET -15.791900 -0.987000 0.000000 
								}
							}
						}
					}
				}
			}
		}
	}
	JOINT RThigh
	{
		OFFSET -8.882900 0.448100 0.000000 
		CHANNELS 3 Xrotation Yrotation Zrotation
		JOINT RShin
		{
			OFFSET 43.131599 0.000000 -0.493500 
			CHANNELS 3 Xrotation Yrotation Zrotation
			JOINT RFoot
			{
				OFFSET 0.000000 -44.725601 -0.404700 
				CHANNELS 3 Xrotation Yrotation Zrotation
				JOINT RToe
				{
					OFFSET 0.000000 -3.933200 12.195300 
					CHANNELS 3 Xrotation Yrotation Zrotation
					End Site
					{
						OFFSET 6.772500 0.000000 0.000000 
					}
				}
			}
		}
	}
	JOINT LThigh
	{
		OFFSET 8.882900 0.448100 0.000000 
		CHANNELS 3 Xrotation Yrotation Zrotation
		JOINT LShin
		{
			OFFSET 43.131599 0.000000 0.493500 
			CHANNELS 3 Xrotation Yrotation Zrotation
			JOINT LFoot
			{
				OFFSET 0.000000 -44.725601 0.404700 
				CHANNELS 3 Xrotation Yrotation Zrotation
				JOINT LToe
				{
					OFFSET 0.000000 -3.933200 -12.195300 
					CHANNELS 3 Xrotation Yrotation Zrotation
					End Site
					{
						OFFSET 6.772500 0.000000 0.000000 
					}
				}
			}
		}
	}
}
MOTION
Frames: 17
Frame Time: 0.016949
-17.521824 91.102242 -14.375921 3.485794 10.280558 -6.182991 -89.999992 -90.000000 0.000000 1.225826 -1.433140 0.516466 4.143239 -4.732302 1.843874 0.000000 0.000000 0.000000 0.000000 0.000000 0.000000 89.999313 -0.391329 -84.742027 -50.023056 -0.309741 -28.961332 5.235711 42.475471 -8.064723 0.000000 0.000000 0.000000 -90.033028 -0.363524 -94.904198 113.595779 -52.021111 50.351765 -5.163651 -42.298584 -8.000683 0.000000 0.000000 0.000000 -50.130241 84.973938 -49.443455 89.817345 19.859930 90.012001 -11.049618 2.200899 1.297587 177.905090 90.000000 0.000000 -108.588783 78.990898 -23.628654 -88.787941 -67.575661 90.752373 -0.207306 -0.375356 0.117165 180.000107 -90.000000 0.000000 
-16.532471 91.436028 -14.065462 3.109712 10.956913 -5.695670 -89.999992 -90.000000 0.000000 1.160840 -1.355785 0.537709 3.923795 -4.475051 1.902002 0.000000 0.000000 0.000000 0.000000 0.000000 0.000000 89.997101 -0.318821 -85.716354 -51.907383 3.881982 -31.014694 5.160320 42.180798 -8.006324 0.000000 0.000000 0.000000 -90.028580 -0.330009 -94.450066 112.179260 -51.200909 49.189964 -4.551460 -38.473530 -7.635450 0.000000 0.000000 0.000000 -40.952202 85.314148 -56.669342 89.840332 17.430416 90.007973 -10.233408 5.246112 2.938296 177.708435 90.000000 0.000000 -104.190475 78.185783 -27.066654 -88.890625 -66.365067 90.655891 -0.024628 -0.426955 0.133687 179.999908 -90.000000 0.000000 
-15.642717 91.757805 -13.740804 2.701376 11.403510 -5.154741 -89.999992 -90.000000 0.000000 1.073784 -1.242164 0.534007 3.627113 -4.100168 1.872106 0.000000 0.000000 0.000000 0.000000 0.000000 0.000000 89.996078 -0.243597 -86.726814 -53.165173 8.336748 -32.294365 5.034795 41.647392 -7.912161 0.000000 0.000000 0.000000 -90.024269 -0.295513 -93.983124 111.058044 -50.849358 47.922642 -3.894842 -33.974434 -7.279696 0.000000 0.000000 0.000000 -31.290485 85.546234 -64.412216 89.862450 15.054322 90.004944 -9.025999 5.885546 3.112580 177.404678 90.000000 0.000000 -100.498360 77.284988 -29.549185 -89.024094 -64.432541 90.532402 0.235313 -0.634462 0.209243 179.999908 -90.000000 0.000000 
-14.829164 92.017891 -13.425545 2.252537 11.907134 -4.610296 -89.999992 -90.000000 0.000000 0.957645 -1.102734 0.509478 3.231659 -3.641701 1.769127 0.000000 0.000000 0.000000 0.000000 0.000000 0.000000 89.996208 -0.179661 -87.585526 -53.816711 12.214502 -32.776897 5.144609 42.176758 -7.989892 0.000000 0.000000 0.000000 -90.021324 -0.270412 -93.643608 109.977425 -50.705914 46.532902 -3.261126 -29.239578 -6.976460 0.000000 0.000000 0.000000 -22.648632 85.660126 -71.086731 89.883987 12.711338 90.002815 -7.934902 5.303398 2.576881 177.195816 90.000000 0.000000 -98.354767 76.428429 -30.083832 -89.179749 -61.543007 90.391800 0.375590 -0.728692 0.245818 180.001221 -90.000000 0.000000 
-13.986311 92.222466 -13.093286 1.743045 12.297300 -4.000005 -89.999992 -90.000000 0.000000 0.812201 -0.954877 0.470146 2.738489 -3.156511 1.615998 0.000000 0.000000 0.000000 0.000000 0.000000 0.000000 89.996849 -0.134805 -88.188049 -53.971352 15.519327 -32.709759 5.452585 43.573055 -8.214303 0.000000 0.000000 0.000000 -90.020149 -0.259981 -93.502609 108.723701 -50.533295 44.997776 -2.725255 -24.956642 -6.753263 0.000000 0.000000 0.000000 -13.631476 85.706955 -78.183441 89.903046 10.618581 90.001595 -7.040870 3.954165 1.696525 176.919266 90.000000 0.000000 -96.576645 75.701469 -29.698334 -89.334465 -57.727245 90.257233 0.389737 -0.747128 0.245998 180.004929 -90.000000 0.000000 
-13.066257 92.364952 -12.755627 1.233046 12.185334 -3.302954 -89.999992 -90.000000 0.000000 0.645627 -0.814326 0.423042 2.175948 -2.695787 1.439082 0.000000 0.000000 0.000000 0.000000 0.000000 0.000000 89.997391 -0.108815 -88.537262 -53.895790 19.178640 -32.372009 5.622325 44.340290 -8.338071 0.000000 0.000000 0.000000 -90.020607 -0.263946 -93.556221 107.015984 -50.355000 42.716827 -2.306746 -21.464909 -6.600143 0.000000 0.000000 0.000000 -1.531563 85.610184 -88.732147 89.916580 9.127772 90.001060 -6.445082 3.288486 1.228424 176.638702 90.000000 0.000000 -95.187897 75.122864 -28.659492 -89.465485 -53.411140 90.149475 0.303387 -0.935745 0.302881 180.007324 -90.000000 0.000000 
-12.063105 92.445930 -12.374768 0.705173 11.813767 -2.616747 -89.999992 -90.000000 0.000000 0.471908 -0.689072 0.375387 1.591062 -2.285079 1.264171 0.000000 0.000000 0.000000 0.000000 0.000000 0.000000 89.997696 -0.096050 -88.708794 -53.841362 23.714134 -31.932423 5.482887 43.782883 -8.231061 0.000000 0.000000 0.000000 -90.022263 -0.278329 -93.750656 104.636459 -49.993233 39.508156 -2.018468 -19.021513 -6.502961 0.000000 0.000000 0.000000 13.268829 85.427376 -102.188210 89.926125 8.075067 90.000771 -6.139338 3.650685 1.291911 176.530945 90.000000 0.000000 -95.231537 74.669075 -26.193554 -89.566803 -49.061569 90.072189 0.282874 -1.341866 0.437211 180.004822 -90.000000 0.000000 
-11.066852 92.469315 -11.933910 0.119158 11.680479 -2.008273 -89.999992 -90.000000 0.000000 0.305933 -0.579301 0.333413 1.033422 -1.924406 1.112425 0.000000 0.000000 0.000000 0.000000 0.000000 0.000000 89.997787 -0.090223 -88.787086 -54.267559 28.979717 -31.389223 5.262884 42.836021 -8.066973 0.000000 0.000000 0.000000 -90.024605 -0.297921 -94.015671 101.463440 -48.766788 36.040707 -1.890936 -17.995218 -6.455269 0.000000 0.000000 0.000000 30.784206 85.512810 -118.182869 89.935547 7.033917 90.000648 -5.996000 3.671219 1.220260 176.555191 90.000000 0.000000 -96.009789 74.264832 -22.936052 -89.644646 -44.861946 90.018173 0.396474 -1.841407 0.600985 180.001236 -90.000000 0.000000 
-10.148698 92.442696 -11.521152 -0.458885 11.892574 -1.499381 -89.999992 -90.000000 0.000000 0.159173 -0.481513 0.300677 0.541037 -1.602091 0.995313 0.000000 0.000000 0.000000 0.000000 0.000000 0.000000 89.997787 -0.087997 -88.817047 -56.809509 34.870041 -29.521114 5.253583 42.822289 -8.058063 0.000000 0.000000 0.000000 -90.027061 -0.317950 -94.286667 97.997932 -46.745960 33.071354 -1.884253 -18.062643 -6.439622 0.000000 0.000000 0.000000 50.735348 85.592445 -136.468826 89.946213 5.853212 90.000710 -5.873492 2.772972 0.780800 176.644943 90.000000 0.000000 -95.555580 73.796692 -20.666643 -89.709709 -40.607056 89.978012 0.517628 -2.282825 0.746815 180.000137 -90.000000 0.000000 
-9.241146 92.369873 -11.158692 -0.993256 12.200473 -1.142145 -89.999992 -90.000000 0.000000 0.037933 -0.392494 0.276697 0.134615 -1.307773 0.910522 0.000000 0.000000 0.000000 0.000000 0.000000 0.000000 89.997696 -0.088723 -88.807228 -62.799580 40.499344 -24.816896 5.570922 44.280952 -8.287918 0.000000 0.000000 0.000000 -90.029160 -0.334402 -94.509491 95.328133 -45.092361 30.864605 -1.884513 -18.192257 -6.425945 0.000000 0.000000 0.000000 64.757843 85.212273 -148.878098 89.956940 4.666498 90.000961 -5.735966 1.842557 0.367002 176.753967 90.000000 0.000000 -93.649391 73.208282 -19.478703 -89.769516 -35.999367 89.946144 0.341110 -2.371296 0.773950 180.000244 -90.000000 0.000000 
-8.332592 92.249359 -10.777234 -1.534754 12.125439 -0.976057 -89.999992 -90.000000 0.000000 -0.055894 -0.310818 0.257336 -0.179651 -1.036875 0.843310 0.000000 0.000000 0.000000 0.000000 0.000000 0.000000 89.997368 -0.097823 -88.684944 -69.701889 44.500988 -18.652967 6.155903 46.779781 -8.724840 0.000000 0.000000 0.000000 -90.030373 -0.343793 -94.636703 93.255569 -43.933174 28.788252 -1.888686 -18.356203 -6.413512 0.000000 0.000000 0.000000 70.450043 84.619629 -153.058563 89.967010 3.551077 90.001350 -5.544912 1.790714 0.359864 176.703415 90.000000 0.000000 -92.116203 72.525436 -17.473133 -89.826248 -30.942741 89.921425 -0.346455 -2.180514 0.696449 180.000244 -90.000000 0.000000 
-7.423338 92.076942 -10.350875 -2.112018 11.265135 -0.906249 -89.999992 -90.000000 0.000000 -0.123006 -0.236646 0.237412 -0.403653 -0.789428 0.775092 0.000000 0.000000 0.000000 0.000000 0.000000 0.000000 89.996796 -0.116900 -88.428680 -73.067108 46.992790 -14.167219 6.915082 49.708447 -9.312881 0.000000 0.000000 0.000000 -90.030273 -0.342947 -94.625252 90.759125 -42.371067 26.093992 -1.962710 -19.143768 -6.421196 0.000000 0.000000 0.000000 73.117897 83.925941 -154.416443 89.975479 2.616060 90.001740 -5.354547 2.633339 0.778479 176.300659 90.000000 0.000000 -91.705421 71.852135 -13.903563 -89.877502 -25.719395 89.904961 -1.391358 -2.303973 0.751328 180.048248 -90.000000 0.000000 
-6.406785 91.811424 -9.888416 -2.753600 9.913305 -0.767915 -89.999992 -90.000000 0.000000 -0.165218 -0.171083 0.213827 -0.542765 -0.568851 0.694401 0.000000 0.000000 0.000000 0.000000 0.000000 0.000000 89.996155 -0.146556 -88.030289 -71.952568 48.721195 -12.533722 7.930149 53.129139 -10.131026 0.000000 0.000000 0.000000 -90.028633 -0.330211 -94.452721 88.113441 -40.383213 23.295622 -2.066875 -20.187061 -6.439891 0.000000 0.000000 0.000000 73.600517 82.963066 -153.901215 89.978989 2.234265 90.001732 -5.709659 3.774734 1.401841 176.119186 90.000000 0.000000 -91.375237 71.367821 -10.185302 -89.917679 -21.044617 89.897743 -3.090344 -2.387745 0.753515 180.496857 -90.000000 0.000000 
-5.251932 91.456505 -9.440257 -3.426128 8.955524 -0.475119 -89.999992 -90.000000 0.000000 -0.184812 -0.115423 0.186707 -0.605138 -0.381681 0.602156 0.000000 0.000000 0.000000 0.000000 0.000000 0.000000 89.995674 -0.184975 -87.514351 -68.028351 49.904488 -13.608223 9.359851 57.141747 -11.333222 0.000000 0.000000 0.000000 -90.025497 -0.305033 -94.111946 85.936592 -38.418125 21.345701 -2.154780 -21.072466 -6.455996 0.000000 0.000000 0.000000 71.439445 81.668404 -151.091171 89.974953 2.693134 90.001053 -6.931042 4.896710 2.126977 176.583344 90.000000 0.000000 -90.689178 71.307907 -7.573599 -89.941620 -17.709681 89.898605 -5.363244 -1.684765 0.493734 181.825760 -90.000000 0.000000 
-3.963778 91.091583 -9.119198 -3.944356 8.801710 -0.023321 -89.999992 -90.000000 0.000000 -0.184761 -0.070914 0.158353 -0.602808 -0.235728 0.507649 0.000000 0.000000 0.000000 0.000000 0.000000 0.000000 89.995560 -0.228788 -86.925903 -62.694344 50.896622 -17.055655 11.163000 61.176834 -12.910399 0.000000 0.000000 0.000000 -90.021202 -0.268299 -93.615173 84.061195 -36.407139 20.262289 -2.256192 -22.060041 -6.478883 0.000000 0.000000 0.000000 69.564720 80.202652 -149.110550 89.962448 4.098526 89.999832 -8.603869 5.669110 2.790204 177.155380 90.000000 0.000000 -90.193939 71.819237 -6.118350 -89.948891 -15.988892 89.904793 -6.401589 -0.818571 0.216978 183.506851 -90.000000 0.000000 
-2.555625 90.747765 -9.010340 -4.157933 8.996700 0.482987 -89.999992 -90.000000 0.000000 -0.169215 -0.039156 0.131381 -0.551406 -0.135963 0.419775 0.000000 0.000000 0.000000 0.000000 0.000000 0.000000 89.995949 -0.274580 -86.310837 -57.160107 51.999115 -21.743866 13.258612 64.830032 -14.802816 0.000000 0.000000 0.000000 -90.016220 -0.221526 -92.983398 82.320633 -34.405071 19.498999 -2.367598 -23.114506 -6.507979 0.000000 0.000000 0.000000 70.405884 78.853531 -150.578110 89.942719 6.308073 89.998772 -10.220681 5.481989 2.980422 177.426620 90.000000 0.000000 -90.082741 72.779091 -5.419353 -89.945091 -15.400736 89.913612 -5.195976 -0.311174 0.030439 184.259476 -90.000000 0.000000 
-1.174072 90.438446 -9.110682 -4.113027 9.139489 0.869237 -89.999992 -90.000000 0.000000 -0.143146 -0.021292 0.107045 -0.467777 -0.080919 0.341234 0.000000 0.000000 0.000000 0.000000 0.000000 0.000000 89.996834 -0.319947 -85.701385 -53.136608 52.887020 -25.434908 16.159864 68.596817 -17.494944 0.000000 0.000000 0.000000 -90.011047 -0.166791 -92.244957 80.769966 -32.683693 18.767637 -2.441133 -23.834272 -6.525393 0.000000 0.000000 0.000000 73.096596 77.738739 -154.515579 89.918633 8.994586 89.998680 -11.434552 4.943337 2.855780 177.206360 90.000000 0.000000 -90.226357 73.831261 -5.131949 -89.936134 -15.353338 89.923424 -3.044629 0.133570 -0.101280 184.038864 -90.000000 0.000000 
